<svg width="200" height="60" viewBox="0 0 200 60" fill="none" xmlns="http://www.w3.org/2000/svg">
  <path d="M20 15L30 45H35L45 15H40L32.5 40L25 15H20Z" fill="#1C1917"/>
  <path d="M50 15L60 45H65L75 15H70L62.5 40L55 15H50Z" fill="#1C1917"/>
  <path d="M80 15L90 45H95L105 15H100L92.5 40L85 15H80Z" fill="#1C1917"/>
  <path d="M110 15V45H115V33H120L128 45H134L124 31C127 30 130 27 130 23C130 18 126 15 121 15H110ZM115 19H120C123 19 125 21 125 23C125 25 123 27 120 27H115V19Z" fill="#1C1917"/>
  <path d="M138 15V45H143V33H148L156 45H162L152 31C155 30 158 27 158 23C158 18 154 15 149 15H138ZM143 19H148C151 19 153 21 153 23C153 25 151 27 148 27H143V19Z" fill="#1C1917"/>
  <path d="M165 15V45H170V15H165Z" fill="#1C1917"/>
</svg>